<?xml version="1.0" encoding="utf-8"?>
<!-- Generator: Adobe Illustrator 16.0.4, SVG Export Plug-In . SVG Version: 6.00 Build 0)  -->
<!DOCTYPE svg PUBLIC "-//W3C//DTD SVG 1.1//EN" "http://www.w3.org/Graphics/SVG/1.1/DTD/svg11.dtd">
<svg version="1.1" id="レイヤー_1" xmlns="http://www.w3.org/2000/svg" xmlns:xlink="http://www.w3.org/1999/xlink" x="0px"
	 y="0px" width="233px" height="51px" viewBox="0 0 233 51" enable-background="new 0 0 233 51" xml:space="preserve">
<path fill="#176434" d="M37.399,9.759c-0.775-1.447-3.324-5.433-9.734-4.992c-4.319,0.297-6.193,5.904-6.91,7.379
	c-0.381,0.783-1.672,4.175-1.672,4.175c-4.748,0.192-8.342-0.708-11.353-2.192c0,0-2.211-1.605-1.542-0.029
	c0.669,1.578,2.053,7.306,0.398,9.582c0,0,0.304,0.574,0.82-0.057c0.588-0.72,3.918-4.061,11.108-3.339c0,0-2.47,12.892-6.64,15.345
	c0,0-0.78,0.866,1.439,0.578c2.221-0.29,10.938-0.128,14.039,0.201c2.584,0.271,4.624,0.932,5.604,1.643
	c0.197,0.143,0.594-0.306,0.594-0.306s0.07-1.542,1.285-3.481c1.947-3.106,3.184-4.976,3.891-6.514
	c0.455-0.988,1.152-1.549,0.111-2.424c0,0-2.461,2.874-5.852,4.464c-3.391,1.587-10.086,3.317-15.167,2.724
	c0,0,4.466-10.322,5.757-11.899c0,0,11.688,0.988,13.853,1.922c0,0,1.44,0.576,1.562-1.73C39.112,18.493,39.091,12.914,37.399,9.759
	z M36.843,13.856c0.221,1.267-0.036,1.645-2.944,2.117c-2.907,0.472-8.36,0.578-8.36,0.578s2.377-4.09,3.528-5.658
	c1.152-1.567,3.466-2.541,4.915-1.828C35.431,9.778,36.548,12.165,36.843,13.856z"/>
<rect x="3.464" y="2.207" fill="none" stroke="#176434" stroke-width="2.9075" stroke-miterlimit="10" width="39.313" height="39.314"/>
<g>
	<path fill="#166334" d="M64.331,7.696l-0.456,0.148c-0.211-0.863-2.469-1.207-3.289-1.207L52.17,6.488v6.109l4.339,0.042
		c1.114,0,2.894-0.02,3.774-0.332c1.511-0.536,1.347-0.099,1.347-0.099v4.672h-0.457c-0.619-0.627-1.02-1.218-2.579-1.229
		l-6.425,0.296v7.207c0,0,0.253,0.06,2.248,0.06h4.108c0.956,0,2.718,0.057,3.536-0.078c0.646-0.105,0.646-0.105,1.199-0.547
		c0.569-0.454,0.633-0.508,1.213-1.102h0.457l-0.346,4.931H47.389v-0.453c0.45-0.051,0.675-0.958,0.87-2.296
		c0.095-0.644,0.247-18.724-0.577-19.436L47.39,3.437c0,0,11.411,1.195,16.244-0.753c1.137-0.456,0.846,1.141,0.846,1.361
		C64.477,4.26,64.331,7.696,64.331,7.696z"/>
	<path fill="#166334" d="M167.363,7.696l-0.456,0.148c-0.21-0.863-2.468-1.207-3.286-1.207l-8.415-0.149v6.109l4.341,0.042
		c1.112,0,2.893-0.02,3.771-0.332c1.512-0.536,1.348-0.099,1.348-0.099v4.672h-0.456c-0.618-0.627-1.019-1.218-2.577-1.229
		l-6.425,0.296v7.207c0,0,0.251,0.06,2.249,0.06h4.107c0.957,0,2.718,0.057,3.535-0.078c0.646-0.105,0.646-0.105,1.198-0.547
		c0.565-0.454,0.632-0.508,1.214-1.102h0.455l-0.346,4.931h-17.198v-0.453c0.452-0.051,0.677-0.958,0.871-2.296
		c0.095-0.644,0.246-18.724-0.577-19.436l-0.293-0.796c0,0,11.412,1.195,16.243-0.753c1.138-0.456,0.849,1.141,0.849,1.361
		C167.512,4.26,167.363,7.696,167.363,7.696z"/>
	<path fill="#166334" d="M208.452,7.696l-0.455,0.148c-0.21-0.863-2.47-1.207-3.286-1.207l-8.415-0.149v6.109l4.338,0.042
		c1.115,0,2.894-0.02,3.774-0.332c1.512-0.536,1.349-0.099,1.349-0.099v4.672H205.3c-0.62-0.627-1.019-1.218-2.577-1.229
		l-6.425,0.296v7.207c0,0,0.25,0.06,2.247,0.06h4.107c0.959,0,2.716,0.057,3.535-0.078c0.646-0.105,0.646-0.105,1.199-0.547
		c0.568-0.454,0.635-0.508,1.213-1.102h0.457l-0.348,4.931h-17.197v-0.453c0.452-0.051,0.676-0.958,0.871-2.296
		c0.096-0.644,0.246-18.724-0.58-19.436l-0.291-0.796c0,0,11.414,1.195,16.245-0.753c1.14-0.456,0.845,1.141,0.845,1.361
		C208.604,4.26,208.452,7.696,208.452,7.696z"/>
	<path fill="#166334" d="M74.307,3.581v0.454c-0.981,1.055,2.18,8.572,2.18,8.572l2.667-5.583c0.245-0.457,1.351-2.989,0.221-2.989
		V3.581l5.558-0.017l0.536,0.657c-1.184,1.831-7.192,10.978-7.192,10.978s9.439,10.72,10.194,10.762v0.453H80.85v-0.453
		c0.464-0.062-3.466-9.452-3.466-9.452l-4.17,9.903h-6.658v-0.453c0.543-0.072,9.183-12.016,9.183-12.016s-4.645-7.23-8.159-9.912
		V3.58L74.307,3.581L74.307,3.581z"/>
	<path fill="#166334" d="M90.146,3.879h15.173c0.746,0,1.365-0.537,1.86-0.725h0.457l0.125,5.398h-0.44
		c-0.232-1.58-2.7-1.892-3.499-1.892h-4.185l0.45,14.121c0,0.604,0.367,2.3,0.502,2.718c0.138,0.423,1.124,2.464,1.935,2.464v0.452
		h-9.43v-0.452c2.225-0.998,2.435-4.288,2.435-5.182l0.15-14.121h-3.736c-0.736,0-3.309,0.374-3.75,1.892h-0.489l0.125-5.398h0.456
		C88.777,3.34,89.398,3.879,90.146,3.879z"/>
	<path fill="#166334" d="M147.646,26.412h-16.939v-0.895c1.26-0.979,2.795-3.214,3.316-7.992l0.15-8.887
		c-0.07-2.855-1.828-4.752-2.869-4.752V3.435h8.879v0.453c-1.209,0-2.09,3.067-2.634,5.198v10.192c0,0.947-0.114,1.815,0.253,2.308
		c0.366,0.496,1.834,0.594,2.906,0.594l1.758-0.296c2.332-0.656,4.766-1.326,5.523-3.334h0.455L147.646,26.412z"/>
	<path fill="#166334" d="M228.771,26.412h-16.939v-0.895c1.26-0.979,2.795-3.214,3.316-7.992l0.15-8.887
		c-0.072-2.855-1.828-4.752-2.869-4.752V3.435h8.877v0.453c-1.207,0-2.091,3.067-2.634,5.198v10.192
		c0,0.947-0.114,1.815,0.252,2.308c0.368,0.496,1.837,0.594,2.908,0.594l1.755-0.293c2.335-0.656,4.771-1.327,5.525-3.335h0.457
		L228.771,26.412z"/>
	<path fill="#166334" d="M189.096,3.185v0.453c-0.851,0.125-1.503,2.679-2.154,4.508l-6.289,18.271h-1.66L171.375,6.68
		c-0.377-0.999-1.402-2.969-2.454-3.042V3.185h5.968v0.453c-0.525,0.031,4.491,15.854,4.491,15.854l3.938-11.643
		c0.306-0.8,0.459-1.523,0.459-2.167c0-0.363,0.291-1.939-0.707-2.044V3.185H189.096L189.096,3.185z"/>
	<path fill="#166334" d="M123.501,3.52h-8.971c-2.557,0-4.627,2.048-4.627,4.58v13.736c0,2.528,2.07,4.579,4.627,4.579h8.971
		c2.554,0,4.627-2.05,4.627-4.579V8.098C128.128,5.568,126.057,3.52,123.501,3.52z M124.827,18.67c0,1.612-1.321,2.919-2.951,2.919
		h-5.724c-1.628,0-2.95-1.308-2.95-2.919V9.907c0-1.612,1.321-2.92,2.95-2.92h5.724c1.629,0,2.951,1.308,2.951,2.92V18.67z"/>
</g>
<polygon id="_x3C_スライス_x3E_" fill="none" points="-2.645,-4.054 237.646,-6.637 237.646,46.164 -2.645,48.747 "/>
<text transform="matrix(1 0 0 1 66.2793 39.0107)" fill="#176434" font-family="'TimesNewRomanPS-BoldMT'" font-size="12.5949">EXT</text>
<text transform="matrix(1 0 0 1 94.4429 39.0107)" font-family="'TimesNewRomanPS-BoldMT'" font-size="12.5949">r</text>
<text transform="matrix(1 0 0 1 100.7891 39.0107)" font-family="'TimesNewRomanPS-BoldMT'" font-size="12.5949" letter-spacing="2">a</text>
<text transform="matrix(1 0 0 1 111.1157 39.0107)" fill="#176434" font-family="'TimesNewRomanPS-BoldMT'" font-size="12.5949">O</text>
<text transform="matrix(1 0 0 1 121.6689 39.0107)" font-family="'TimesNewRomanPS-BoldMT'" font-size="12.5949">ptimal</text>
<text transform="matrix(1 0 0 1 165.2207 39.0107)" fill="#176434" font-family="'TimesNewRomanPS-BoldMT'" font-size="12.5949">LEVEL</text>
</svg>
